<?xml version="1.0" encoding="UTF-8"?>
<svg id="Capa_1" data-name="Capa 1" xmlns="http://www.w3.org/2000/svg" xmlns:xlink="http://www.w3.org/1999/xlink" viewBox="0 0 1920 278">
  <defs>
    <style>
      .cls-1 {
        fill: url(#Degradado_sin_nombre_39);
      }

      .cls-2 {
        fill: url(#Degradado_sin_nombre_55);
      }

      .cls-3 {
        fill: url(#Degradado_sin_nombre_38);
      }

      .cls-4 {
        fill: url(#Degradado_sin_nombre_5);
      }

      .cls-5 {
        fill: #fff;
        stroke: #fff;
        stroke-miterlimit: 10;
      }
    </style>
    <linearGradient id="Degradado_sin_nombre_5" data-name="Degradado sin nombre 5" x1="0" y1="139" x2="1920" y2="139" gradientUnits="userSpaceOnUse">
      <stop offset=".04" stop-color="#0f0f0f"/>
      <stop offset=".64" stop-color="#113733"/>
      <stop offset="1" stop-color="#124b44"/>
    </linearGradient>
    <radialGradient id="Degradado_sin_nombre_38" data-name="Degradado sin nombre 38" cx="157.82" cy="-5.94" fx="157.82" fy="-5.94" r="105.59" gradientUnits="userSpaceOnUse">
      <stop offset="0" stop-color="#cca316"/>
      <stop offset=".1" stop-color="#d58e11"/>
      <stop offset=".37" stop-color="#ed5d06"/>
      <stop offset=".51" stop-color="#f74a02"/>
      <stop offset=".56" stop-color="#f04a03"/>
      <stop offset=".62" stop-color="#de4a08"/>
      <stop offset=".7" stop-color="#c14a11"/>
      <stop offset=".79" stop-color="#984a1d"/>
      <stop offset=".88" stop-color="#634a2c"/>
      <stop offset=".97" stop-color="#244a3e"/>
      <stop offset="1" stop-color="#124b44"/>
    </radialGradient>
    <radialGradient id="Degradado_sin_nombre_55" data-name="Degradado sin nombre 55" cx="1841.37" cy="-242.07" fx="1841.37" fy="-242.07" r="325.65" gradientUnits="userSpaceOnUse">
      <stop offset="0" stop-color="#fff"/>
      <stop offset=".05" stop-color="#fcefdc"/>
      <stop offset=".14" stop-color="#f8d19d"/>
      <stop offset=".22" stop-color="#f4b968"/>
      <stop offset=".3" stop-color="#f1a63f"/>
      <stop offset=".38" stop-color="#ef9922"/>
      <stop offset=".44" stop-color="#ee9010"/>
      <stop offset=".49" stop-color="#ee8e0a"/>
      <stop offset=".66" stop-color="#f07a07"/>
      <stop offset="1" stop-color="#f74a02"/>
    </radialGradient>
    <radialGradient id="Degradado_sin_nombre_39" data-name="Degradado sin nombre 39" cx="499.91" cy="156.87" fx="499.91" fy="156.87" r="75.84" gradientUnits="userSpaceOnUse">
      <stop offset=".04" stop-color="#cca316"/>
      <stop offset=".04" stop-color="#cba316"/>
      <stop offset=".35" stop-color="#9ab537"/>
      <stop offset=".51" stop-color="#87bd45"/>
      <stop offset=".58" stop-color="#80b644"/>
      <stop offset=".68" stop-color="#6ea544"/>
      <stop offset=".8" stop-color="#518844"/>
      <stop offset=".94" stop-color="#286144"/>
      <stop offset="1" stop-color="#124b44"/>
    </radialGradient>
  </defs>
  <g>
    <rect class="cls-4" width="1920" height="278"/>
    <circle class="cls-3" cx="182.17" cy="22.53" r="83.4"/>
    <circle class="cls-2" cx="1773.82" cy="-61.28" r="247.83"/>
    <path class="cls-1" d="m528.15,144.76c25.32,0,45.85,20.53,45.85,45.85s-20.53,45.85-45.85,45.85c-25.32,0-45.85-20.53-45.85-45.85s20.53-45.85,45.85-45.85Z"/>
  </g>
  <g>
    <path class="cls-5" d="m629,105.46c0-5.28,1.01-10.2,3.04-14.75,2.03-4.56,4.75-8.53,8.19-11.93,3.43-3.4,7.45-6.08,12.04-8.03,4.59-1.95,9.49-2.93,14.7-2.93h14.48c2.49,0,4.5,2.02,4.5,4.5h0c0,2.49-2.02,4.5-4.5,4.5h-13.29c-4.05,0-7.81.69-11.28,2.06-3.47,1.37-6.47,3.33-9,5.86-2.53,2.53-4.54,5.55-6.02,9.06-1.48,3.51-2.22,7.4-2.22,11.66s.78,8.3,2.33,11.88c1.55,3.58,3.67,6.62,6.35,9.11,2.68,2.5,5.8,4.43,9.38,5.8,3.58,1.37,7.39,2.06,11.44,2.06h12.31c2.49,0,4.5,2.02,4.5,4.5h0c0,2.49-2.02,4.5-4.5,4.5h-13.4c-5.35,0-10.38-.94-15.08-2.82-4.7-1.88-8.84-4.48-12.42-7.81-3.58-3.33-6.4-7.3-8.46-11.93-2.06-4.63-3.09-9.72-3.09-15.29Z"/>
    <path class="cls-5" d="m702.06,67.71h0c2.55,0,4.61,2.06,4.61,4.61v25.65l3.69-3.36c4.12-3.76,8.78-5.64,13.99-5.64,3.4,0,6.49.65,9.28,1.95,2.78,1.3,5.15,3.07,7.1,5.31,1.95,2.24,3.47,4.87,4.56,7.86,1.08,3,1.63,6.24,1.63,9.71v24.73c0,2.58-2.09,4.66-4.66,4.66h0c-2.58,0-4.66-2.09-4.66-4.66v-24.73c0-2.17-.42-4.21-1.25-6.13-.83-1.91-1.95-3.58-3.36-4.99-1.41-1.41-3.04-2.53-4.88-3.36-1.85-.83-3.82-1.25-5.91-1.25s-4.2.4-6.08,1.19-3.53,1.9-4.93,3.31-2.51,3.07-3.31,4.99c-.8,1.92-1.19,4-1.19,6.24v24.79c0,2.55-2.06,4.61-4.61,4.61h0c-2.55,0-4.61-2.06-4.61-4.61v-66.28c0-2.55,2.06-4.61,4.61-4.61Z"/>
    <path class="cls-5" d="m784.12,144.72c-3.76,0-7.32-.72-10.68-2.17-3.36-1.45-6.31-3.42-8.84-5.91-2.53-2.5-4.54-5.44-6.02-8.84-1.48-3.4-2.22-7.05-2.22-10.96s.72-7.56,2.17-10.96c1.45-3.4,3.43-6.35,5.97-8.84,2.53-2.49,5.48-4.46,8.84-5.91,3.36-1.45,6.96-2.17,10.79-2.17s7.45.72,10.85,2.17c3.4,1.45,6.36,3.42,8.89,5.91,2.53,2.5,4.52,5.44,5.97,8.84,1.45,3.4,2.17,7.05,2.17,10.96v21.75c0,2.55-2.06,4.61-4.61,4.61h0c-2.55,0-4.61-2.06-4.61-4.61v-21.75c0-2.75-.43-5.33-1.3-7.76-.87-2.42-2.12-4.56-3.74-6.4-1.63-1.85-3.58-3.29-5.86-4.34-2.28-1.05-4.87-1.57-7.76-1.57-2.68,0-5.13.58-7.38,1.74-2.24,1.16-4.18,2.68-5.8,4.56-1.63,1.88-2.91,4.01-3.85,6.4-.94,2.39-1.41,4.85-1.41,7.38s.47,5.01,1.41,7.43c.94,2.42,2.22,4.56,3.85,6.4,1.63,1.85,3.58,3.33,5.86,4.45,2.28,1.12,4.72,1.68,7.32,1.68,1.66,0,3.27-.18,4.83-.54,1.55-.36,3.23-.94,5.04-1.74.07.15.27.6.6,1.36.33.76.67,1.54,1.03,2.33.43.94.9,1.99,1.41,3.15-3.98,2.24-8.28,3.36-12.91,3.36Z"/>
    <path class="cls-5" d="m823.6,115.11c0-3.25.6-6.33,1.79-9.22,1.19-2.89,2.84-5.46,4.94-7.7,2.1-2.24,4.52-4.07,7.27-5.48.89-.46,1.8-.86,2.74-1.19,2.99-1.08,6.15,1.11,6.15,4.28v.06c0,1.88-1.14,3.62-2.92,4.24-.82.29-1.62.64-2.4,1.06-1.66.9-3.11,2.06-4.34,3.47-1.23,1.41-2.22,3-2.98,4.77-.76,1.77-1.14,3.67-1.14,5.7v23.54c0,2.52-2.04,4.56-4.56,4.56h0c-2.52,0-4.56-2.04-4.56-4.56v-23.54Z"/>
    <path class="cls-5" d="m855.71,138.59v-66.28c0-2.55,2.06-4.61,4.61-4.61h0c2.55,0,4.61,2.06,4.61,4.61v66.28c0,2.55-2.06,4.61-4.61,4.61h0c-2.55,0-4.61-2.06-4.61-4.61Z"/>
    <path class="cls-5" d="m877.73,72.26c0-1.37.42-2.48,1.25-3.31.83-.83,1.97-1.25,3.42-1.25,1.23,0,2.28.43,3.15,1.3.87.87,1.3,1.95,1.3,3.25s-.45,2.39-1.36,3.25-2.01,1.3-3.31,1.3c-1.23,0-2.28-.45-3.15-1.35-.87-.9-1.3-1.97-1.3-3.2Zm4.56,18.33h0c2.52,0,4.56,2.04,4.56,4.56v43.5c0,2.52-2.04,4.56-4.56,4.56h0c-2.52,0-4.56-2.04-4.56-4.56v-43.5c0-2.52,2.04-4.56,4.56-4.56Z"/>
    <path class="cls-5" d="m897.47,116.84c0-3.9.72-7.56,2.17-10.96,1.45-3.4,3.43-6.35,5.97-8.84,2.53-2.49,5.46-4.46,8.78-5.91,3.33-1.45,6.91-2.17,10.74-2.17s7.45.72,10.85,2.17c3.4,1.45,6.36,3.42,8.89,5.91,2.53,2.5,4.52,5.44,5.97,8.84,1.45,3.4,2.17,7.05,2.17,10.96,0,.2,0,.4,0,.59-.05,2.53-2.52,4.32-4.96,3.66-1.02-.28-2.06-.5-3.11-.68-2.57-.43-5.12-.65-7.65-.65-3.18,0-6.31.33-9.38.98-1.31.28-2.6.63-3.89,1.07-2.54.86-5.17-1.07-5.17-3.75h0c0-1.7,1.07-3.26,2.7-3.76,4.86-1.49,9.86-2.24,14.98-2.24,1.16,0,2.29.04,3.42.11,1.12.07,2.26.18,3.42.33-.51-2.24-1.36-4.25-2.55-6.02-1.19-1.77-2.6-3.27-4.23-4.5-1.63-1.23-3.44-2.19-5.42-2.87s-4-1.03-6.02-1.03c-2.53,0-4.92.49-7.16,1.46s-4.19,2.3-5.86,3.96c-1.67,1.67-3,3.65-4.02,5.97-1.01,2.32-1.52,4.77-1.52,7.38s.51,5.05,1.52,7.32c1.01,2.28,2.37,4.27,4.07,5.97,1.7,1.7,3.67,3.02,5.91,3.96,2.24.94,4.59,1.41,7.05,1.41,2.17,0,4.23-.33,6.18-.98.98-.33,1.92-.74,2.82-1.25,1.61-.9,3.62-.7,4.87.66.31.34.62.68.93,1.02.04.05.09.1.13.15,1.7,1.88,1.17,4.89-1.06,6.11-1.4.77-2.86,1.41-4.39,1.93-3.07,1.05-6.24,1.57-9.49,1.57-3.47,0-6.78-.61-9.92-1.84-3.15-1.23-5.95-2.95-8.41-5.15-2.46-2.2-4.48-4.79-6.08-7.76-1.59-2.96-2.6-6.18-3.04-9.65-.15-.58-.22-1.16-.22-1.73v-1.74Z"/>
    <path class="cls-5" d="m999.21,67.82h33.63c2.89,0,5.62.54,8.19,1.63,2.57,1.09,4.79,2.59,6.67,4.5,1.88,1.92,3.36,4.16,4.45,6.73,1.08,2.57,1.63,5.37,1.63,8.41,0,1.88-.24,3.74-.7,5.59-.47,1.84-1.1,3.53-1.9,5.04-1.37-.87-2.86-1.57-4.45-2.11-.27-.09-.55-.18-.83-.27-1.89-.6-2.98-2.61-2.39-4.51v-.05c.48-1.52.72-3,.72-4.45,0-3.62-1.1-6.38-3.31-8.3-2.21-1.91-4.9-2.87-8.08-2.87h-24.41v56.73h29.94c3.25,0,5.98-1.01,8.19-3.04,2.2-2.02,3.31-4.77,3.31-8.24s-1.1-6.24-3.31-8.3c-2.21-2.06-4.94-3.09-8.19-3.09h-16.87c-2.49,0-4.5-2.02-4.5-4.5h0c0-2.49,2.02-4.5,4.5-4.5h13.72c3.04,0,6,.36,8.89,1.08,2.89.72,5.48,1.88,7.76,3.47,2.28,1.59,4.12,3.63,5.53,6.13,1.41,2.5,2.12,5.48,2.12,8.95,0,3.04-.54,5.86-1.63,8.46-1.08,2.6-2.59,4.87-4.5,6.78-1.92,1.92-4.16,3.44-6.73,4.56-2.57,1.12-5.33,1.68-8.3,1.68h-39.16v-75.5Z"/>
    <path class="cls-5" d="m1094.34,144.72c-3.76,0-7.32-.72-10.68-2.17-3.36-1.45-6.31-3.42-8.84-5.91-2.53-2.5-4.54-5.44-6.02-8.84-1.48-3.4-2.22-7.05-2.22-10.96s.72-7.56,2.17-10.96c1.45-3.4,3.43-6.35,5.97-8.84,2.53-2.49,5.48-4.46,8.84-5.91s6.96-2.17,10.79-2.17,7.45.72,10.85,2.17c3.4,1.45,6.36,3.42,8.89,5.91,2.53,2.5,4.52,5.44,5.97,8.84,1.45,3.4,2.17,7.05,2.17,10.96v21.75c0,2.55-2.06,4.61-4.61,4.61h0c-2.55,0-4.61-2.06-4.61-4.61v-21.75c0-2.75-.43-5.33-1.3-7.76-.87-2.42-2.12-4.56-3.74-6.4-1.63-1.85-3.58-3.29-5.86-4.34-2.28-1.05-4.87-1.57-7.76-1.57-2.68,0-5.13.58-7.38,1.74-2.24,1.16-4.18,2.68-5.8,4.56-1.63,1.88-2.91,4.01-3.85,6.4-.94,2.39-1.41,4.85-1.41,7.38s.47,5.01,1.41,7.43c.94,2.42,2.22,4.56,3.85,6.4,1.63,1.85,3.58,3.33,5.86,4.45,2.28,1.12,4.72,1.68,7.32,1.68,1.66,0,3.27-.18,4.83-.54,1.55-.36,3.23-.94,5.04-1.74.07.15.27.6.6,1.36.33.76.67,1.54,1.03,2.33.43.94.9,1.99,1.41,3.15-3.98,2.24-8.28,3.36-12.91,3.36Z"/>
    <path class="cls-5" d="m1131.76,105.02c0-2.24.45-4.27,1.36-6.08.9-1.81,2.15-3.36,3.74-4.66,1.59-1.3,3.43-2.3,5.53-2.98,2.1-.69,4.34-1.03,6.73-1.03,4.12,0,7.88.89,11.28,2.66,2.21,1.15,4.05,2.69,5.52,4.62,1.28,1.68.57,4.13-1.4,4.87h0c-.36.14-.73.27-1.1.41-1.37.5-2.87-.02-3.73-1.2-.85-1.18-1.88-2.19-3.09-3.06-1.88-1.34-4.12-2.01-6.73-2.01-1.01,0-2.08.18-3.2.54-1.12.36-2.17.89-3.15,1.57s-1.79,1.57-2.44,2.66c-.65,1.08-.98,2.38-.98,3.9,0,2.32.6,4.09,1.79,5.31,1.19,1.23,2.95,2.21,5.26,2.93.87.29,2.02.54,3.47.76,1.45.22,3,.51,4.66.87s3.33.85,4.99,1.46c1.66.62,3.16,1.43,4.5,2.44,1.34,1.01,2.42,2.3,3.25,3.85.83,1.56,1.25,3.45,1.25,5.7,0,2.38-.51,4.52-1.52,6.4-1.01,1.88-2.39,3.47-4.12,4.77-1.74,1.3-3.71,2.3-5.91,2.98-2.21.68-4.5,1.03-6.89,1.03-3.76,0-7.18-.76-10.25-2.28-1.74-.86-3.29-1.96-4.65-3.31-1.63-1.62-1.15-4.39.91-5.42h0c.4-.2.8-.4,1.21-.61,1.36-.69,2.94-.28,3.95.86.86.98,1.91,1.82,3.14,2.51,2.06,1.16,4.03,1.66,5.91,1.52,2.6-.14,4.84-.81,6.73-2.01,1.88-1.19,2.89-3.24,3.04-6.13.07-2.1-.67-3.62-2.22-4.56-1.55-.94-3.42-1.7-5.58-2.28-2.17-.43-4.49-.92-6.94-1.47-2.46-.54-4.76-1.37-6.89-2.49-2.14-1.12-3.91-2.71-5.32-4.77-1.41-2.06-2.12-4.83-2.12-8.3Z"/>
    <path class="cls-5" d="m1179.17,72.26c0-1.37.42-2.48,1.25-3.31.83-.83,1.97-1.25,3.42-1.25,1.23,0,2.28.43,3.15,1.3.87.87,1.3,1.95,1.3,3.25s-.45,2.39-1.36,3.25-2.01,1.3-3.31,1.3c-1.23,0-2.28-.45-3.15-1.35-.87-.9-1.3-1.97-1.3-3.2Zm4.56,18.33h0c2.52,0,4.56,2.04,4.56,4.56v43.5c0,2.52-2.04,4.56-4.56,4.56h0c-2.52,0-4.56-2.04-4.56-4.56v-43.5c0-2.52,2.04-4.56,4.56-4.56Z"/>
    <path class="cls-5" d="m1198.91,116.84c0-3.9.74-7.48,2.22-10.74,1.48-3.25,3.49-6.02,6.02-8.3,2.53-2.28,5.48-4.05,8.84-5.32,3.36-1.26,6.92-1.9,10.69-1.9h12.47c2.52,0,4.56,2.04,4.56,4.56h0c0,2.52-2.04,4.56-4.56,4.56h-12.47c-2.39,0-4.7.36-6.94,1.08-2.24.72-4.23,1.81-5.96,3.25-1.74,1.45-3.13,3.24-4.18,5.37-1.05,2.13-1.57,4.61-1.57,7.43s.52,5.21,1.57,7.38c1.05,2.17,2.44,3.98,4.18,5.42,1.73,1.45,3.72,2.55,5.96,3.31s4.52,1.14,6.83,1.14h12.58c2.52,0,4.56,2.04,4.56,4.56h0c0,2.52-2.04,4.56-4.56,4.56h-12.58c-3.76,0-7.3-.63-10.63-1.9-3.33-1.26-6.25-3.07-8.78-5.42-2.53-2.35-4.54-5.13-6.02-8.35-1.48-3.21-2.22-6.78-2.22-10.68Z"/>
    <path class="cls-5" d="m1253.47,105.02c0-2.24.45-4.27,1.36-6.08.9-1.81,2.15-3.36,3.74-4.66,1.59-1.3,3.43-2.3,5.53-2.98,2.1-.69,4.34-1.03,6.73-1.03,4.12,0,7.88.89,11.28,2.66,2.21,1.15,4.05,2.69,5.52,4.62,1.28,1.68.57,4.13-1.4,4.87h0c-.36.14-.73.27-1.1.41-1.37.5-2.87-.02-3.73-1.2s-1.88-2.19-3.09-3.06c-1.88-1.34-4.12-2.01-6.73-2.01-1.01,0-2.08.18-3.2.54-1.12.36-2.17.89-3.15,1.57s-1.79,1.57-2.44,2.66c-.65,1.08-.98,2.38-.98,3.9,0,2.32.6,4.09,1.79,5.31,1.19,1.23,2.95,2.21,5.26,2.93.87.29,2.02.54,3.47.76,1.45.22,3,.51,4.66.87s3.33.85,4.99,1.46c1.66.62,3.16,1.43,4.5,2.44s2.42,2.3,3.25,3.85c.83,1.56,1.25,3.45,1.25,5.7,0,2.38-.51,4.52-1.52,6.4s-2.39,3.47-4.12,4.77c-1.74,1.3-3.71,2.3-5.91,2.98-2.21.68-4.5,1.03-6.89,1.03-3.76,0-7.18-.76-10.25-2.28-1.74-.86-3.29-1.96-4.65-3.31-1.63-1.62-1.15-4.39.91-5.42h0c.4-.2.8-.4,1.21-.61,1.36-.69,2.94-.28,3.95.86.86.98,1.91,1.82,3.14,2.51,2.06,1.16,4.03,1.66,5.91,1.52,2.6-.14,4.84-.81,6.73-2.01,1.88-1.19,2.89-3.24,3.04-6.13.07-2.1-.67-3.62-2.22-4.56-1.55-.94-3.42-1.7-5.58-2.28-2.17-.43-4.49-.92-6.94-1.47-2.46-.54-4.76-1.37-6.89-2.49-2.14-1.12-3.91-2.71-5.32-4.77-1.41-2.06-2.12-4.83-2.12-8.3Z"/>
  </g>
</svg>